<svg
        xmlns="http://www.w3.org/2000/svg"
        width="16"
        height="16"
        fill="currentColor"
        class="bi bi-unlock-clock"
        viewBox="0 0 16 16"
>
    <path d="m11 1c-1.1046 0-2 0.89543-2 2v4c1.1046 0 2 0.89543 2 2v5c0 1.1046-0.89543 2-2 2h-6c-1.1046 0-2-0.89543-2-2v-5c0-1.1046 0.89543-2 2-2h5v-4c0-4 6-4 6 0v2c0 0.66667-1 0.66667-1 0v-2c0-1.1046-0.89543-2-2-2zm-8 7c-0.55228 0-1 0.44772-1 1v5c0 0.55228 0.44772 1 1 1h6c0.55228 0 1-0.44772 1-1v-5c0-0.55228-0.44772-1-1-1z" />
    <g transform="matrix(.49153 0 0 .49153 8.1356 8.1356)" fill="currentColor">
        <path d="m16 8a8 8 0 1 1-16 0 8 8 0 0 1 16 0zm-8-4.5a0.5 0.5 0 0 0-1 0v5.5a0.5 0.5 0 0 0 0.252 0.434l3.5 2a0.5 0.5 0 0 0 0.496-0.868l-3.248-1.856z" />
    </g>
</svg>
